<svg xmlns="http://www.w3.org/2000/svg" viewBox="0 0 499.62 499.74"><defs><style>.cls-1{fill:#fff;}.cls-2{fill:#f1f2f5;}</style></defs><title>face</title><g id="Camada_2" data-name="Camada 2"><g id="Camada_1-2" data-name="Camada 1"><path class="cls-1" d="M254.09,499.74h-6.34c-2.92-.54-5.87-.1-8.8-.25-18.93.33-37.33-3.05-55.52-7.93A239.44,239.44,0,0,1,136,473.2a247.45,247.45,0,0,1-52.76-36.12,251.45,251.45,0,0,1-51.95-64.4A248.71,248.71,0,0,1,.9,278.93a148.26,148.26,0,0,1-.67-15.06c0-.87.28-1.78-.23-2.61V239.31c.65-3.12.32-6.3.41-9.43.44-16.79,3.86-33.06,8.45-49.11A250.75,250.75,0,0,1,214.18,1.83,196,196,0,0,1,239.42.14c11.69-.2,23.4-.3,35.08.5A208.16,208.16,0,0,1,307.19,6a242.1,242.1,0,0,1,56.4,20.71A251.55,251.55,0,0,1,468.38,127.44a244.65,244.65,0,0,1,29.88,90.91c1.81,14.8,1.36,29.66,1.19,44.52-.29,24.34-5.48,47.72-13.44,70.56a247.92,247.92,0,0,1-34.46,65.05,237.43,237.43,0,0,1-23.7,27.8,251.93,251.93,0,0,1-105.66,63.58,12.81,12.81,0,0,1-2.13.55,1.82,1.82,0,0,1-2.26-1.64,15,15,0,0,1-.16-2.92V309.31c0-.81,0-1.62.07-2.44a2.46,2.46,0,0,1,2.5-2.47c1-.08,1.94-.08,2.92-.08h45.35c3.08,0,3.3-.24,3.68-3.23,1.89-14.91,3.86-29.81,5.73-44.73.45-3.55,1-7.07,1.42-10.63.17-1.48-.3-2.15-1.79-2.16l-2.43,0H323.63c-.89,0-1.78,0-2.68,0-2.54-.14-3.29-.72-3.26-3.22.16-15.19-.74-30.4.54-45.57,1-12.26,7.78-19.67,19.83-22.06a50,50,0,0,1,9.92-1q15.12,0,30.24,0c3.17,0,3.3-.12,3.3-3.29q0-23.77,0-47.55c0-3.32,0-3.32-3.32-3.66a352.86,352.86,0,0,0-50.13-1.77c-16.32.66-31.58,5.12-44.76,15.26a67.85,67.85,0,0,0-22.75,31.6,99.33,99.33,0,0,0-5.62,33c-.13,14.3,0,28.61,0,42.92a28.48,28.48,0,0,1-.09,2.92,2.37,2.37,0,0,1-2.32,2.37,30.43,30.43,0,0,1-3.17.09q-22.31,0-44.62,0c-3.35,0-3.44.09-3.44,3.4q0,27.06,0,54.13c0,3.15.1,3.24,3.34,3.24H249c1,0,1.95,0,2.92,0,2,0,3,1.06,3,3,0,.89,0,1.79,0,2.68q0,92.43,0,184.84C254.9,496.55,255.31,498.3,254.09,499.74Z"/><path class="cls-2" d="M238.48,499.74c0-.16,0-.32,0-.48,3.09.26,6.23-.58,9.28.48Z"/></g></g></svg>