<svg xmlns="http://www.w3.org/2000/svg" viewBox="0 0 499.9 499.7"><defs><style>.cls-1{fill:#f1f2f5;}.cls-2{fill:#fff;}</style></defs><title>insta</title><g id="Camada_2" data-name="Camada 2"><g id="Camada_1-2" data-name="Camada 1"><path class="cls-1" d="M238.49,499.7v-.49c3.08.27,6.22-.57,9.27.49Z"/><path class="cls-1" d="M261.42,499.22c0,.16,0,.32,0,.48h-9.27C255.19,498.64,258.33,499.48,261.42,499.22Z"/><path class="cls-2" d="M499.9,236.34c-.42-.49-.24-1.09-.24-1.63a123,123,0,0,0-.62-13.85,230.47,230.47,0,0,0-6.93-36.36,245.08,245.08,0,0,0-23.34-57.17A252.09,252.09,0,0,0,350.09,20a247.85,247.85,0,0,0-48-15.32A196.46,196.46,0,0,0,270.53.32c-11-.52-22.09-.25-33.14-.24a130.41,130.41,0,0,0-13.84.59,253.78,253.78,0,0,0-38.08,7A251.41,251.41,0,0,0,19.94,149.79a247.16,247.16,0,0,0-15,46.31A180.1,180.1,0,0,0,.41,227.9c-.1,2.81.22,5.65-.41,8.44v24.87c.51.83.23,1.75.23,2.61a130.7,130.7,0,0,0,.65,14.82A251.32,251.32,0,0,0,137.53,473.9a234.31,234.31,0,0,0,37.27,15c20.91,6.33,42.15,10.83,64.16,10.54,2.93.14,5.88-.3,8.8.25h4.38c2.94-.55,5.89-.11,8.84-.25,4.63.14,9.26-.07,13.87-.34a190.27,190.27,0,0,0,28.88-4.43,245.38,245.38,0,0,0,70.09-26.82,252.74,252.74,0,0,0,97-99,244.15,244.15,0,0,0,23.47-62.08c2.63-11.56,4.92-23.19,5.25-35.13.08-3.13-.26-6.31.4-9.42ZM393.52,281.48c0,10.45-.24,20.93-1,31.34-1,13.55-3.63,26.75-10.23,38.93a73.14,73.14,0,0,1-26.34,28c-11.26,6.93-23.63,10.43-36.72,11.74-5.48.55-11,.63-16.46,1-10.07.73-20.13.26-30.19.37-8.92.09-17.83.88-26.76.5-14.93-.64-29.88-.13-44.8-.58-12.18-.37-24.4-.89-36.3-4.19-20.09-5.58-35.68-17-46.15-35.12-5.3-9.18-8.25-19.13-9.81-29.56-.93-6.25-1.16-12.55-1.57-18.84-.39-6-.12-12-.39-18-1-23.3-.35-46.61-.33-69.91,0-6.14,0-12.33.4-18.47.65-11.54,1.09-23.1,4.29-34.34a77.37,77.37,0,0,1,15.4-29.51c12-14.1,27.45-21.85,45.34-25.31a153.85,153.85,0,0,1,19.76-2c19.46-1.22,38.94-.78,55.81-.89,14.22,0,25.84-.13,37.46,0,9.56.13,19.13.35,28.66,1,13.67.94,26.9,3.8,39.12,10.43a71.23,71.23,0,0,1,27.25,25.73c6.81,11.09,10.35,23.3,11.74,36.22,1.07,9.92,1.14,19.87,1.48,29.82C394,233.74,393.45,257.61,393.52,281.48Z"/><path class="cls-2" d="M367.3,201a184.33,184.33,0,0,0-1.54-21.77c-1.06-7-2.87-13.89-6.44-20-7.06-12.13-17.51-19.9-31.21-23.42-10-2.56-20.17-2.89-30.32-3.25-14.27-.52-28.57.19-42.85-.53-6.23-.32-12.48.24-18.72.36-16.21.31-32.44-.32-48.65,1-7.21.59-14.3,1.62-21.12,4.13-15.75,5.8-25.7,17-30.39,33-3.57,12.2-3.45,24.81-3.8,37.31-.39,14-.09,28-.09,45.67.29,16.46-.6,36.67.93,56.86.58,7.7,1.55,15.28,4.19,22.57,5.83,16.09,17.2,26.08,33.53,30.74,12.79,3.65,26,3.62,39,3.71,28.5.21,57,.68,85.52-.27,8.25-.27,16.5-.37,24.7-1.53a58.67,58.67,0,0,0,20.3-6.36c12.7-7,20.4-17.88,24-31.86,2.81-10.85,3.19-22,3.22-33C367.69,263.25,368.28,232.14,367.3,201ZM249.78,323.16c-40.12.95-74.13-32.9-73.67-74.05a73.83,73.83,0,0,1,147.66,1.55C323.58,290.28,290.46,324.21,249.78,323.16Zm77-132.68c-10.27-.07-17.42-8.75-17-17.2,0-9.63,7.41-16.93,17.19-16.93a16.84,16.84,0,0,1,16.95,17.21A17.1,17.1,0,0,1,326.73,190.48Z"/><path class="cls-2" d="M298,250.2c.15,25.74-21.2,47.68-48.25,47.62a48.19,48.19,0,0,1-47.9-49.76c.74-24.09,21.63-47.25,50.52-46C276.38,203.09,298.52,223.64,298,250.2Z"/></g></g></svg>