<svg xmlns="http://www.w3.org/2000/svg" viewBox="0 0 499.72 499.76"><defs><style>.cls-1{fill:#f1f2f5;}.cls-2{fill:#fff;}</style></defs><title>you</title><g id="Camada_2" data-name="Camada 2"><g id="Camada_1-2" data-name="Camada 1"><path class="cls-1" d="M238.48,499.76c0-.16,0-.32,0-.48,3.09.26,6.23-.58,9.28.48Z"/><path class="cls-2" d="M499.68,253.63c-.19-9.57.12-19.17-.68-28.72a225,225,0,0,0-5.06-31.25,251.13,251.13,0,0,0-144-173.4c-31.57-13.64-64.44-21-99-20.2-9.09.22-18.22-.19-27.26.72a242.81,242.81,0,0,0-40.21,7.51A250.92,250.92,0,0,0,61.33,84.89,252.56,252.56,0,0,0,28.21,133,242.75,242.75,0,0,0,5.79,193.09C3,205.3.73,217.57.41,230.15c-.09,3.54.24,7.12-.41,10.64V260.3c.49.75.22,1.58.23,2.37a181.39,181.39,0,0,0,1.46,22.08,247.33,247.33,0,0,0,29,86.65A252.35,252.35,0,0,0,137.1,473.76a236.88,236.88,0,0,0,38.62,15.55c20.62,6.24,41.56,10.47,63.23,10.2,2.93.14,5.88-.3,8.8.25H258a4.66,4.66,0,0,1,2.61-.23,175,175,0,0,0,19.43-.92,242.57,242.57,0,0,0,76.74-22.08A251,251,0,0,0,487.09,330.44C495.53,305.57,500.2,280,499.68,253.63Zm-94,10.2c-.09,9.21-.65,18.44-1.45,27.62-1,11.1-1.84,22.26-4.81,33.06-4.36,15.89-14.8,25.57-30.89,28.88-8.7,1.79-17.59,2.43-26.47,3q-14.9,1-29.82,1.56c-5.1.21-10.23,0-15.3.41-9.09.8-18.2-.07-27.26.52-10.88.7-21.76.5-32.62.29-9.49-.19-19-.08-28.47-.46-9.23-.36-18.47-.48-27.69-.93-10.34-.51-20.68-1.09-31-2-7.47-.65-15-1.25-22.25-3.39-13.81-4.11-23.06-13.07-27.19-27-2.27-7.62-3.15-15.49-4-23.39-.93-9-1.62-18-2-27.09-.39-10-1-19.91-.85-29.88.16-9.07.3-18.16,1-27.2,1-12.63,1.83-25.3,4.28-37.78,3.07-15.64,11.66-26.67,26.72-32.31,4.19-1.56,8.66-2,13.07-2.55,7.62-1,15.27-1.56,22.94-2,11.07-.67,22.15-1.09,33.24-1.55,6.57-.27,13.15.11,19.69-.41,11.44-.9,22.89,0,31.81-.42,11.38,0,20.25-.24,29.09.07,8.2.29,16.39.15,24.58.49s16.36.38,24.51,1c11.11.82,22.26,1.18,33.34,2.72,7.4,1,14.85,1.73,21.54,5.32,10.14,5.45,16.92,13.73,19.88,24.94a151.36,151.36,0,0,1,4,24.62c1,10.32,1.48,20.64,2,31C405.93,241.92,405.77,252.88,405.67,263.83Z"/><path class="cls-2" d="M300,249.92c-4.42,2.58-8.44,5-12.49,7.3q-17.16,9.9-34.34,19.78-16.42,9.47-32.85,18.94c-1.42.83-1.89.67-1.89-1.11q.06-44.71,0-89.43c0-.62-.3-1.44.35-1.8s1.32.34,1.93.69q20.55,11.79,41.11,23.59C274.46,235.11,287,242.39,300,249.92Z"/></g></g></svg>